
<svg xmlns="http://www.w3.org/2000/svg" xmlns:xlink="http://www.w3.org/1999/xlink" version="1.1"  width="629" height="1022">
<defs id="dmw_defs" >
<svg id="fk_sym" viewBox="0 0 48.665 48.665" style="enable-background:new 0 0 48.665 48.665;" >
<g>
<path d="M40.332,31.592c-2.377,0-4.515,1-6.033,2.598l-17.737-8.686c0.061-0.406,0.103-0.82,0.103-1.246    c0-0.414-0.04-0.818-0.098-1.215l17.711-8.589c1.519,1.609,3.666,2.619,6.054,2.619c4.603,0,8.333-3.731,8.333-8.333    c0-4.603-3.73-8.333-8.333-8.333s-8.333,3.73-8.333,8.333c0,0.414,0.04,0.817,0.098,1.215l-17.709,8.589    c-1.519-1.609-3.666-2.619-6.054-2.619C3.73,15.925,0,19.656,0,24.258c0,4.603,3.73,8.333,8.333,8.333    c2.377,0,4.515-1,6.033-2.596l17.736,8.685c-0.062,0.406-0.104,0.82-0.104,1.245c0,4.604,3.73,8.333,8.333,8.333    s8.333-3.729,8.333-8.333C48.665,35.322,44.935,31.592,40.332,31.592z" fill="#13bf3b"/>
</g>
</svg>
<svg id="pk_sym" viewBox="0 0 480.509 480.509" style="enable-background:new 0 0 480.509 480.509;" >
<g>
<path d="M418.119,331.046c4.094,4.374,7.766,8.186,10.996,11.416c3.237,3.238,6.714,6.376,10.427,9.422   c3.71,3.042,6.427,4.568,8.135,4.568c3.241,0,9.517-4.661,18.843-13.99c9.328-9.321,13.989-15.604,13.989-18.842   c0-1.523-2.714-5.421-8.138-11.704c-5.421-6.276-12.364-13.702-20.838-22.271c-8.473-8.565-16.703-16.744-24.694-24.55   c-8.001-7.81-15.8-15.373-23.417-22.703c-7.611-7.327-11.992-11.56-13.135-12.703c-1.902-1.902-4.093-2.853-6.563-2.853   c-3.237,0-9.521,4.661-18.843,13.988c-9.328,9.322-13.989,15.605-13.989,18.843c0,1.711,1.522,4.421,4.568,8.138   c3.046,3.71,6.188,7.187,9.421,10.424c3.23,3.23,7.047,6.899,11.42,10.992c4.377,4.093,6.848,6.423,7.423,6.995l-27.408,27.404   L254.954,222.268c24.94-33.498,37.408-68.236,37.408-104.211c0-31.024-9.761-56.293-29.263-75.801   c-19.512-19.511-44.778-29.265-75.805-29.265c-30.454,0-60.244,9.042-89.363,27.119c-29.121,18.083-52.727,41.686-70.808,70.808   C9.042,140.038,0,169.828,0,200.28c0,31.029,9.753,56.286,29.265,75.803c19.511,19.517,44.777,29.27,75.801,29.27   c35.976,0,70.71-12.467,104.212-37.407l191.574,191.579c5.332,5.328,11.796,7.994,19.417,7.994c7.991,0,15.704-3.72,23.12-11.14   c7.426-7.426,11.143-15.129,11.143-23.127c0-7.617-2.666-14.092-7.994-19.417l-62.811-62.811l27.405-27.404   C411.699,324.195,414.033,326.666,418.119,331.046z M221.556,161.458c-10.656,10.657-23.601,15.987-38.828,15.987   c-7.996,0-15.896-1.812-23.7-5.43c3.617,7.808,5.426,15.706,5.426,23.7c0,15.229-5.327,28.171-15.987,38.828   c-10.66,10.655-23.606,15.986-38.831,15.986c-15.227,0-28.168-5.325-38.828-15.986c-10.657-10.657-15.987-23.599-15.987-38.828   c0-15.227,5.327-28.171,15.987-38.828C81.464,146.23,94.409,140.9,109.636,140.9c7.992,0,15.893,1.809,23.695,5.424   c-3.616-7.804-5.424-15.706-5.424-23.699c0-15.227,5.327-28.171,15.987-38.828c10.66-10.657,23.604-15.987,38.831-15.987   c15.227,0,28.171,5.327,38.828,15.987c10.657,10.66,15.987,23.601,15.987,38.828C237.539,137.852,232.209,150.797,221.556,161.458z   " fill="#ff8345"/>
</g>
</svg>
<svg id="uk_sym" viewBox="0 0 490 490" style="enable-background:new 0 0 490 490;" >
<g>
	<polygon points="236.99,11.41 0,246.348 236.99,478.678 236.99,350.609 129.864,245 236.99,139.391  " fill="#0064fb"/>
<polygon points="253.01,478.59 490,243.651 253.01,11.322 253.01,139.391 360.136,245 253.01,350.609  " fill="#0064fb"/>
</g>
</svg>
<svg id="link_sym" viewBox="0 0 1000 900" style="enable-background:new 0 0 1000 900;" >
<g>
<path fill="black" d="M660.224 422.656c6.976 16.192-0.512 35.008-16.768 42.048-16.128 6.976-34.944-0.448-41.984-16.768-8.448-19.776-20.736-37.696-36.224-53.248-64.64-64.64-177.344-64.64-241.92 0l-145.216 145.28c-66.688 66.688-66.688 175.232 0 241.984 66.688 66.688 175.104 66.752 241.92 0l92.8-92.864c12.48-12.48 32.768-12.48 45.248 0s12.48 32.768 0 45.248l-92.8 92.864c-91.648 91.648-240.832 91.52-332.416 0-91.712-91.648-91.712-240.832 0-332.48l145.216-145.28c44.352-44.416 103.424-68.864 166.272-68.864s121.792 24.448 166.208 68.864c21.248 21.312 38.016 45.952 49.664 73.216zM891.136 401.344l-145.216 145.216c-88.768 88.832-243.712 88.832-332.416 0-21.312-21.312-38.080-45.952-49.728-73.216-7.040-16.256 0.448-35.072 16.704-42.048 16.064-6.784 35.008 0.512 41.984 16.768 8.512 19.776 20.8 37.696 36.288 53.248 64.64 64.64 177.344 64.64 241.92 0l145.216-145.216c66.688-66.688 66.688-175.232 0-241.984-66.752-66.624-175.168-66.688-241.92 0l-92.8 92.864c-12.48 12.48-32.768 12.48-45.248 0s-12.48-32.768 0-45.248l92.8-92.864c45.824-45.824 105.984-68.736 166.208-68.736s120.448 22.912 166.272 68.736c91.584 91.648 91.584 240.768-0.064 332.48z" />
</g>
</svg>
<clipPath clipPathUnits="userSpaceOnUse" id="clipPath7_0_">
<rect x="0" y="0" width="249" height="199" />
</clipPath>
<clipPath clipPathUnits="userSpaceOnUse" id="clipPath3_0_">
<rect x="0" y="0" width="256" height="160" />
</clipPath>
<clipPath clipPathUnits="userSpaceOnUse" id="clipPath2_0_">
<rect x="0" y="0" width="239" height="102" />
</clipPath>
<clipPath clipPathUnits="userSpaceOnUse" id="clipPath8_0_">
<rect x="0" y="0" width="228" height="89" />
</clipPath>
<clipPath clipPathUnits="userSpaceOnUse" id="clipPath4_0_">
<rect x="0" y="0" width="247" height="329" />
</clipPath>
<clipPath clipPathUnits="userSpaceOnUse" id="clipPath5_0_">
<rect x="0" y="0" width="302" height="212" />
</clipPath>
<clipPath clipPathUnits="userSpaceOnUse" id="clipPath6_0_">
<rect x="0" y="0" width="219" height="115" />
</clipPath>
</defs>
<g stroke-linecap="butt" >
<path stroke="rgb(0,0,0)" fill="none" stroke-opacity="1.0"  stroke-width="1" d="M356 324 L269 232" />
<polygon stroke="rgb(0,0,0)" stroke-dasharray="none" points="356 324 350 322 354 318" fill="rgb(0,0,0)" stroke-width="1" stroke-opacity="1.0"  />
<path stroke-dasharray="none" d="M273.0 228.0 L277.0 240.0 L265.0 236.0 M281.3999996185303 236.39999961853027 L273.3999996185303 244.39999961853027" fill="white" stroke-width="1" stroke-opacity="1.0" stroke="rgb(0,0,0)" />
</g>
<g stroke-linecap="butt" >
<path stroke="rgb(0,0,0)" fill="none" stroke-opacity="1.0"  stroke-dasharray="8,8" stroke-width="1" d="M140 771 L140 711" />
<polygon stroke="rgb(0,0,0)" stroke-dasharray="none" points="140 771 137 765 143 765" fill="rgb(0,0,0)" stroke-width="1" stroke-opacity="1.0"  />
<path stroke-dasharray="none" d="M146.0 711.0 L140.0 723.0 L134.0 711.0 M146.0 723.5999994277954 L134.0 723.5999994277954" fill="white" stroke-width="1" stroke-opacity="1.0" stroke="rgb(0,0,0)" />
</g>
<g stroke-linecap="butt" >
<path stroke="rgb(0,0,0)" fill="none" stroke-opacity="1.0"  stroke-dasharray="8,8" stroke-width="1" d="M135 933 L135 873" />
<polygon stroke="rgb(0,0,0)" stroke-dasharray="none" points="135 933 132 927 138 927" fill="rgb(0,0,0)" stroke-width="1" stroke-opacity="1.0"  />
<path stroke-dasharray="none" d="M141.0 873.0 L135.0 885.0 L129.0 873.0 M141.0 885.5999994277954 L129.0 885.5999994277954" fill="white" stroke-width="1" stroke-opacity="1.0" stroke="rgb(0,0,0)" />
</g>
<g stroke-linecap="butt" >
<path stroke="rgb(0,0,0)" fill="none" stroke-opacity="1.0"  stroke-dasharray="8,8" stroke-width="1" d="M356 372 L276 372" />
<polygon stroke="rgb(0,0,0)" stroke-dasharray="none" points="356 372 350 375 350 369" fill="rgb(0,0,0)" stroke-width="1" stroke-opacity="1.0"  />
<path stroke-dasharray="none" d="M276.0 366.0 L288.0 372.0 L276.0 378.0 M288.5999994277954 366.0 L288.5999994277954 378.0" fill="white" stroke-width="1" stroke-opacity="1.0" stroke="rgb(0,0,0)" />
</g>
<g stroke-linecap="butt" >
<path stroke="rgb(0,0,0)" fill="none" stroke-opacity="1.0"  stroke-width="1" d="M502 135 L502 292" />
<polygon stroke="rgb(0,0,0)" stroke-dasharray="none" points="502 135 505 141 499 141" fill="rgb(0,0,0)" stroke-width="1" stroke-opacity="1.0"  />
<path stroke-dasharray="none" d="M496.0 292.0 L502.0 280.0 L508.0 292.0 M496.0 279.4000005722046 L508.0 279.4000005722046" fill="white" stroke-width="1" stroke-opacity="1.0" stroke="rgb(0,0,0)" />
</g>
<g stroke-linecap="butt" >
<path stroke="rgb(0,0,0)" fill="none" stroke-opacity="1.0"  stroke-dasharray="8,8" stroke-width="1" d="M145 512 L145 452" />
<polygon stroke="rgb(0,0,0)" stroke-dasharray="none" points="145 512 142 506 148 506" fill="rgb(0,0,0)" stroke-width="1" stroke-opacity="1.0"  />
<path stroke-dasharray="none" d="M151.0 452.0 L145.0 464.0 L139.0 452.0 M151.0 464.5999994277954 L139.0 464.5999994277954" fill="white" stroke-width="1" stroke-opacity="1.0" stroke="rgb(0,0,0)" />
</g>
<g stroke-linecap="butt" >
<path stroke="rgb(0,0,0)" fill="none" stroke-opacity="1.0"  stroke-dasharray="8,8" stroke-width="1" d="M148 292 L148 232" />
<polygon stroke="rgb(0,0,0)" stroke-dasharray="none" points="148 292 145 286 151 286" fill="rgb(0,0,0)" stroke-width="1" stroke-opacity="1.0"  />
<path stroke-dasharray="none" d="M154.0 232.0 L148.0 244.0 L142.0 232.0 M154.0 244.5999994277954 L142.0 244.5999994277954" fill="white" stroke-width="1" stroke-opacity="1.0" stroke="rgb(0,0,0)" />
</g>
<g stroke-linecap="butt" >
<path stroke="rgb(0,0,0)" fill="none" stroke-opacity="1.0"  stroke-dasharray="8,8" stroke-width="1" d="M603 485 L628 485 L628 646 L501 646 L501 621" />
<polygon stroke="rgb(0,0,0)" stroke-dasharray="none" points="603 485 609 482 609 488" fill="rgb(0,0,0)" stroke-width="1" stroke-opacity="1.0"  />
<path stroke-dasharray="none" d="M507.0 621.0 L501.0 633.0 L495.0 621.0 M507.0 633.5999994277954 L495.0 633.5999994277954" fill="white" stroke-width="1" stroke-opacity="1.0" stroke="rgb(0,0,0)" />
</g>
<g stroke-linecap="butt" >
<path stroke="rgb(0,0,0)" fill="none" stroke-opacity="1.0"  stroke-dasharray="8,8" stroke-width="1" d="M276 387 L356 387" />
<polygon stroke="rgb(0,0,0)" stroke-dasharray="none" points="276 387 282 384 282 390" fill="rgb(0,0,0)" stroke-width="1" stroke-opacity="1.0"  />
<path stroke-dasharray="none" d="M356.0 393.0 L344.0 387.0 L356.0 381.0 M343.4000005722046 393.0 L343.4000005722046 381.0" fill="white" stroke-width="1" stroke-opacity="1.0" stroke="rgb(0,0,0)" />
</g>
<g stroke-linecap="butt" >
<path stroke="rgb(0,0,0)" fill="none" stroke-opacity="1.0"  stroke-width="1" d="M402 77 L322 77" />
<polygon stroke="rgb(0,0,0)" stroke-dasharray="none" points="402 77 396 80 396 74" fill="rgb(0,0,0)" stroke-width="1" stroke-opacity="1.0"  />
<path stroke-dasharray="none" d="M322.0 71.0 L334.0 77.0 L322.0 83.0 M334.5999994277954 71.0 L334.5999994277954 83.0" fill="white" stroke-width="1" stroke-opacity="1.0" stroke="rgb(0,0,0)" />
</g>
<g  fill="rgb(255,255,180)" stroke="rgb(0,0,255)" fill-opacity="1.0" stroke-opacity="1.0" clip-path="url(#clipPath3_0_)" transform="translate(20,292)" >
<rect x="0" y="0" width="255" height="159" />
<text id="08E16F3E-6119A01FC2D9" x="81" y="13" fill="rgb(0,0,255)" font-weight="bold"  fill-opacity="1.0" font-size="10" stroke="none">
HR.DEPARTMENTS
</text>
<line x1="0" y1="17" x2="254" y2="17" fill="none" stroke="rgb(0,0,255)"/>
<text x="16" y="30" fill="rgb(255,0,0)" fill-opacity="1.0" font-size="10" stroke="none">
*
</text>
<text x="2" y="30" fill="rgb(0,0,255)" fill-opacity="1.0" font-size="10" stroke="none">
P
</text>
<text x="26" y="30" fill="rgb(0,0,0)" fill-opacity="1.0" font-size="10" stroke="none">
DEPARTMENT_ID
</text>
<text x="143" y="30" fill="rgb(0,128,0)" fill-opacity="1.0" font-size="10" stroke="none">
NUMBER (4)
</text>
<text x="16" y="43" fill="rgb(255,0,0)" fill-opacity="1.0" font-size="10" stroke="none">
*
</text>
<text x="26" y="43" fill="rgb(0,0,0)" fill-opacity="1.0" font-size="10" stroke="none">
DEPARTMENT_NAME
</text>
<text x="143" y="43" fill="rgb(0,128,0)" fill-opacity="1.0" font-size="10" stroke="none">
VARCHAR2 (30 BYTE)
</text>
<text x="16" y="56" fill="rgb(255,0,0)" fill-opacity="1.0" font-size="10" stroke="none">

</text>
<text x="2" y="56" fill="rgb(0,0,0)" fill-opacity="1.0" font-size="10" stroke="none">
F
</text>
<text x="26" y="56" fill="rgb(0,0,0)" fill-opacity="1.0" font-size="10" stroke="none">
MANAGER_ID
</text>
<text x="143" y="56" fill="rgb(0,128,0)" fill-opacity="1.0" font-size="10" stroke="none">
NUMBER (6)
</text>
<text x="16" y="69" fill="rgb(255,0,0)" fill-opacity="1.0" font-size="10" stroke="none">

</text>
<text x="2" y="69" fill="rgb(0,0,0)" fill-opacity="1.0" font-size="10" stroke="none">
F
</text>
<text x="26" y="69" fill="rgb(0,0,0)" fill-opacity="1.0" font-size="10" stroke="none">
LOCATION_ID
</text>
<text x="143" y="69" fill="rgb(0,128,0)" fill-opacity="1.0" font-size="10" stroke="none">
NUMBER (4)
</text>
<line x1="0" y1="75" x2="254" y2="75" fill="none" stroke="rgb(0,0,255)"/>
<use xlink:href="#pk_sym" x="4" y="82" width="8" height="8" fill-opacity="1.0"/>
<text x="16" y="88" fill="rgb(0,0,0)" fill-opacity="1.0" font-size="10" stroke="none">
DEPT_ID_PK (DEPARTMENT_ID)
</text>
<line x1="0" y1="94" x2="254" y2="94" fill="none" stroke="rgb(0,0,255)"/>
<use xlink:href="#fk_sym" x="4" y="101" width="8" height="8" fill-opacity="1.0"/><a xlink:href="#02CA4671-1FB256F4DC80" >
<text x="16" y="107" fill="rgb(0,0,0)" fill-opacity="1.0" font-size="10" stroke="none">
DEPT_LOC_FK (LOCATION_ID)
</text></a>
<use xlink:href="#fk_sym" x="4" y="114" width="8" height="8" fill-opacity="1.0"/><a xlink:href="#71DE8AC9-578EAB69F3A3" >
<text x="16" y="120" fill="rgb(0,0,0)" fill-opacity="1.0" font-size="10" stroke="none">
DEPT_MGR_FK (MANAGER_ID)
</text></a>
<line x1="0" y1="126" x2="254" y2="126" fill="none" stroke="rgb(0,0,255)"/>
<text x="2" y="139" fill="rgb(0,0,0)" fill-opacity="1.0" font-size="10" stroke="none">
U
</text>
<text x="16" y="139" fill="rgb(0,0,0)" fill-opacity="1.0" font-size="10" stroke="none">
DEPT_ID_PK (DEPARTMENT_ID)
</text>
<text x="16" y="152" fill="rgb(0,0,0)" fill-opacity="1.0" font-size="10" stroke="none">
DEPT_LOCATION_IX (LOCATION_ID)
</text>
</g>
<g  fill="rgb(255,255,180)" stroke="rgb(0,0,255)" fill-opacity="1.0" stroke-opacity="1.0" clip-path="url(#clipPath6_0_)" transform="translate(402,20)" >
<rect x="0" y="0" width="218" height="114" />
<text id="B156D19C-A8D8CC2E7FBC" x="89" y="13" fill="rgb(0,0,255)" font-weight="bold"  fill-opacity="1.0" font-size="10" stroke="none">
HR.JOBS
</text>
<line x1="0" y1="17" x2="217" y2="17" fill="none" stroke="rgb(0,0,255)"/>
<text x="16" y="30" fill="rgb(255,0,0)" fill-opacity="1.0" font-size="10" stroke="none">
*
</text>
<text x="2" y="30" fill="rgb(0,0,255)" fill-opacity="1.0" font-size="10" stroke="none">
P
</text>
<text x="26" y="30" fill="rgb(0,0,0)" fill-opacity="1.0" font-size="10" stroke="none">
JOB_ID
</text>
<text x="106" y="30" fill="rgb(0,128,0)" fill-opacity="1.0" font-size="10" stroke="none">
VARCHAR2 (10 BYTE)
</text>
<text x="16" y="43" fill="rgb(255,0,0)" fill-opacity="1.0" font-size="10" stroke="none">
*
</text>
<text x="26" y="43" fill="rgb(0,0,0)" fill-opacity="1.0" font-size="10" stroke="none">
JOB_TITLE
</text>
<text x="106" y="43" fill="rgb(0,128,0)" fill-opacity="1.0" font-size="10" stroke="none">
VARCHAR2 (35 BYTE)
</text>
<text x="16" y="56" fill="rgb(255,0,0)" fill-opacity="1.0" font-size="10" stroke="none">

</text>
<text x="26" y="56" fill="rgb(0,0,0)" fill-opacity="1.0" font-size="10" stroke="none">
MIN_SALARY
</text>
<text x="106" y="56" fill="rgb(0,128,0)" fill-opacity="1.0" font-size="10" stroke="none">
NUMBER (6)
</text>
<text x="16" y="69" fill="rgb(255,0,0)" fill-opacity="1.0" font-size="10" stroke="none">

</text>
<text x="26" y="69" fill="rgb(0,0,0)" fill-opacity="1.0" font-size="10" stroke="none">
MAX_SALARY
</text>
<text x="106" y="69" fill="rgb(0,128,0)" fill-opacity="1.0" font-size="10" stroke="none">
NUMBER (6)
</text>
<line x1="0" y1="75" x2="217" y2="75" fill="none" stroke="rgb(0,0,255)"/>
<use xlink:href="#pk_sym" x="4" y="82" width="8" height="8" fill-opacity="1.0"/>
<text x="16" y="88" fill="rgb(0,0,0)" fill-opacity="1.0" font-size="10" stroke="none">
JOB_ID_PK (JOB_ID)
</text>
<line x1="0" y1="94" x2="217" y2="94" fill="none" stroke="rgb(0,0,255)"/>
<text x="2" y="107" fill="rgb(0,0,0)" fill-opacity="1.0" font-size="10" stroke="none">
U
</text>
<text x="16" y="107" fill="rgb(0,0,0)" fill-opacity="1.0" font-size="10" stroke="none">
JOB_ID_PK (JOB_ID)
</text>
</g>
<g  fill="rgb(255,255,180)" stroke="rgb(0,0,255)" fill-opacity="1.0" stroke-opacity="1.0" clip-path="url(#clipPath8_0_)" transform="translate(21,933)" >
<rect x="0" y="0" width="227" height="88" />
<text id="52F42D4A-701877EDE007" x="83" y="13" fill="rgb(0,0,255)" font-weight="bold"  fill-opacity="1.0" font-size="10" stroke="none">
HR.REGIONS
</text>
<line x1="0" y1="17" x2="226" y2="17" fill="none" stroke="rgb(0,0,255)"/>
<text x="16" y="30" fill="rgb(255,0,0)" fill-opacity="1.0" font-size="10" stroke="none">
*
</text>
<text x="2" y="30" fill="rgb(0,0,255)" fill-opacity="1.0" font-size="10" stroke="none">
P
</text>
<text x="26" y="30" fill="rgb(0,0,0)" fill-opacity="1.0" font-size="10" stroke="none">
REGION_ID
</text>
<text x="115" y="30" fill="rgb(0,128,0)" fill-opacity="1.0" font-size="10" stroke="none">
NUMBER
</text>
<text x="16" y="43" fill="rgb(255,0,0)" fill-opacity="1.0" font-size="10" stroke="none">

</text>
<text x="26" y="43" fill="rgb(0,0,0)" fill-opacity="1.0" font-size="10" stroke="none">
REGION_NAME
</text>
<text x="115" y="43" fill="rgb(0,128,0)" fill-opacity="1.0" font-size="10" stroke="none">
VARCHAR2 (25 BYTE)
</text>
<line x1="0" y1="49" x2="226" y2="49" fill="none" stroke="rgb(0,0,255)"/>
<use xlink:href="#pk_sym" x="4" y="56" width="8" height="8" fill-opacity="1.0"/>
<text x="16" y="62" fill="rgb(0,0,0)" fill-opacity="1.0" font-size="10" stroke="none">
REG_ID_PK (REGION_ID)
</text>
<line x1="0" y1="68" x2="226" y2="68" fill="none" stroke="rgb(0,0,255)"/>
<text x="2" y="81" fill="rgb(0,0,0)" fill-opacity="1.0" font-size="10" stroke="none">
U
</text>
<text x="16" y="81" fill="rgb(0,0,0)" fill-opacity="1.0" font-size="10" stroke="none">
REG_ID_PK (REGION_ID)
</text>
</g>
<g  fill="rgb(255,255,180)" stroke="rgb(0,0,255)" fill-opacity="1.0" stroke-opacity="1.0" clip-path="url(#clipPath5_0_)" transform="translate(20,20)" >
<rect x="0" y="0" width="301" height="211" />
<text id="7499E6C9-B8D46D45F0AB" x="108" y="13" fill="rgb(0,0,255)" font-weight="bold"  fill-opacity="1.0" font-size="10" stroke="none">
HR.JOB_HISTORY
</text>
<line x1="0" y1="17" x2="300" y2="17" fill="none" stroke="rgb(0,0,255)"/>
<text x="16" y="30" fill="rgb(255,0,0)" fill-opacity="1.0" font-size="10" stroke="none">
*
</text>
<text x="2" y="30" fill="rgb(0,0,255)" fill-opacity="1.0" font-size="10" stroke="none">
PF
</text>
<text x="26" y="30" fill="rgb(0,0,0)" fill-opacity="1.0" font-size="10" stroke="none">
EMPLOYEE_ID
</text>
<text x="125" y="30" fill="rgb(0,128,0)" fill-opacity="1.0" font-size="10" stroke="none">
NUMBER (6)
</text>
<text x="16" y="43" fill="rgb(255,0,0)" fill-opacity="1.0" font-size="10" stroke="none">
*
</text>
<text x="2" y="43" fill="rgb(0,0,255)" fill-opacity="1.0" font-size="10" stroke="none">
P
</text>
<text x="26" y="43" fill="rgb(0,0,0)" fill-opacity="1.0" font-size="10" stroke="none">
START_DATE
</text>
<text x="125" y="43" fill="rgb(0,128,0)" fill-opacity="1.0" font-size="10" stroke="none">
DATE
</text>
<text x="16" y="56" fill="rgb(255,0,0)" fill-opacity="1.0" font-size="10" stroke="none">
*
</text>
<text x="26" y="56" fill="rgb(0,0,0)" fill-opacity="1.0" font-size="10" stroke="none">
END_DATE
</text>
<text x="125" y="56" fill="rgb(0,128,0)" fill-opacity="1.0" font-size="10" stroke="none">
DATE
</text>
<text x="16" y="69" fill="rgb(255,0,0)" fill-opacity="1.0" font-size="10" stroke="none">
*
</text>
<text x="2" y="69" fill="rgb(0,0,0)" fill-opacity="1.0" font-size="10" stroke="none">
F
</text>
<text x="26" y="69" fill="rgb(0,0,0)" fill-opacity="1.0" font-size="10" stroke="none">
JOB_ID
</text>
<text x="125" y="69" fill="rgb(0,128,0)" fill-opacity="1.0" font-size="10" stroke="none">
VARCHAR2 (10 BYTE)
</text>
<text x="16" y="82" fill="rgb(255,0,0)" fill-opacity="1.0" font-size="10" stroke="none">

</text>
<text x="2" y="82" fill="rgb(0,0,0)" fill-opacity="1.0" font-size="10" stroke="none">
F
</text>
<text x="26" y="82" fill="rgb(0,0,0)" fill-opacity="1.0" font-size="10" stroke="none">
DEPARTMENT_ID
</text>
<text x="125" y="82" fill="rgb(0,128,0)" fill-opacity="1.0" font-size="10" stroke="none">
NUMBER (4)
</text>
<line x1="0" y1="88" x2="300" y2="88" fill="none" stroke="rgb(0,0,255)"/>
<use xlink:href="#pk_sym" x="4" y="95" width="8" height="8" fill-opacity="1.0"/>
<text x="16" y="101" fill="rgb(0,0,0)" fill-opacity="1.0" font-size="10" stroke="none">
JHIST_EMP_ID_ST_DATE_PK (EMPLOYEE_ID, START_DATE)
</text>
<line x1="0" y1="107" x2="300" y2="107" fill="none" stroke="rgb(0,0,255)"/>
<use xlink:href="#fk_sym" x="4" y="114" width="8" height="8" fill-opacity="1.0"/><a xlink:href="#08E16F3E-6119A01FC2D9" >
<text x="16" y="120" fill="rgb(0,0,0)" fill-opacity="1.0" font-size="10" stroke="none">
JHIST_DEPT_FK (DEPARTMENT_ID)
</text></a>
<use xlink:href="#fk_sym" x="4" y="127" width="8" height="8" fill-opacity="1.0"/><a xlink:href="#71DE8AC9-578EAB69F3A3" >
<text x="16" y="133" fill="rgb(0,0,0)" fill-opacity="1.0" font-size="10" stroke="none">
JHIST_EMP_FK (EMPLOYEE_ID)
</text></a>
<use xlink:href="#fk_sym" x="4" y="140" width="8" height="8" fill-opacity="1.0"/><a xlink:href="#B156D19C-A8D8CC2E7FBC" >
<text x="16" y="146" fill="rgb(0,0,0)" fill-opacity="1.0" font-size="10" stroke="none">
JHIST_JOB_FK (JOB_ID)
</text></a>
<line x1="0" y1="152" x2="300" y2="152" fill="none" stroke="rgb(0,0,255)"/>
<text x="16" y="165" fill="rgb(0,0,0)" fill-opacity="1.0" font-size="10" stroke="none">
JHIST_DEPARTMENT_IX (DEPARTMENT_ID)
</text>
<text x="2" y="178" fill="rgb(0,0,0)" fill-opacity="1.0" font-size="10" stroke="none">
U
</text>
<text x="16" y="178" fill="rgb(0,0,0)" fill-opacity="1.0" font-size="10" stroke="none">
JHIST_EMP_ID_ST_DATE_PK (EMPLOYEE_ID, START_DATE)
</text>
<text x="16" y="191" fill="rgb(0,0,0)" fill-opacity="1.0" font-size="10" stroke="none">
JHIST_EMPLOYEE_IX (EMPLOYEE_ID)
</text>
<text x="16" y="204" fill="rgb(0,0,0)" fill-opacity="1.0" font-size="10" stroke="none">
JHIST_JOB_IX (JOB_ID)
</text>
</g>
<g  fill="rgb(255,255,180)" stroke="rgb(0,0,255)" fill-opacity="1.0" stroke-opacity="1.0" clip-path="url(#clipPath2_0_)" transform="translate(21,771)" >
<rect x="0" y="0" width="238" height="101" />
<text id="252C5112-9546F4FE35A0" x="81" y="13" fill="rgb(0,0,255)" font-weight="bold"  fill-opacity="1.0" font-size="10" stroke="none">
HR.COUNTRIES
</text>
<line x1="0" y1="17" x2="237" y2="17" fill="none" stroke="rgb(0,0,255)"/>
<text x="16" y="30" fill="rgb(255,0,0)" fill-opacity="1.0" font-size="10" stroke="none">
*
</text>
<text x="2" y="30" fill="rgb(0,0,255)" fill-opacity="1.0" font-size="10" stroke="none">
P
</text>
<text x="26" y="30" fill="rgb(0,0,0)" fill-opacity="1.0" font-size="10" stroke="none">
COUNTRY_ID
</text>
<text x="126" y="30" fill="rgb(0,128,0)" fill-opacity="1.0" font-size="10" stroke="none">
CHAR (2 BYTE)
</text>
<text x="16" y="43" fill="rgb(255,0,0)" fill-opacity="1.0" font-size="10" stroke="none">

</text>
<text x="26" y="43" fill="rgb(0,0,0)" fill-opacity="1.0" font-size="10" stroke="none">
COUNTRY_NAME
</text>
<text x="126" y="43" fill="rgb(0,128,0)" fill-opacity="1.0" font-size="10" stroke="none">
VARCHAR2 (60 BYTE)
</text>
<text x="16" y="56" fill="rgb(255,0,0)" fill-opacity="1.0" font-size="10" stroke="none">

</text>
<text x="2" y="56" fill="rgb(0,0,0)" fill-opacity="1.0" font-size="10" stroke="none">
F
</text>
<text x="26" y="56" fill="rgb(0,0,0)" fill-opacity="1.0" font-size="10" stroke="none">
REGION_ID
</text>
<text x="126" y="56" fill="rgb(0,128,0)" fill-opacity="1.0" font-size="10" stroke="none">
NUMBER
</text>
<line x1="0" y1="62" x2="237" y2="62" fill="none" stroke="rgb(0,0,255)"/>
<use xlink:href="#pk_sym" x="4" y="69" width="8" height="8" fill-opacity="1.0"/>
<text x="16" y="75" fill="rgb(0,0,0)" fill-opacity="1.0" font-size="10" stroke="none">
COUNTRY_C_ID_PK (COUNTRY_ID)
</text>
<line x1="0" y1="81" x2="237" y2="81" fill="none" stroke="rgb(0,0,255)"/>
<use xlink:href="#fk_sym" x="4" y="88" width="8" height="8" fill-opacity="1.0"/><a xlink:href="#52F42D4A-701877EDE007" >
<text x="16" y="94" fill="rgb(0,0,0)" fill-opacity="1.0" font-size="10" stroke="none">
COUNTR_REG_FK (REGION_ID)
</text></a>
</g>
<g  fill="rgb(255,255,180)" stroke="rgb(0,0,255)" fill-opacity="1.0" stroke-opacity="1.0" clip-path="url(#clipPath4_0_)" transform="translate(356,292)" >
<rect x="0" y="0" width="246" height="328" />
<text id="71DE8AC9-578EAB69F3A3" x="85" y="13" fill="rgb(0,0,255)" font-weight="bold"  fill-opacity="1.0" font-size="10" stroke="none">
HR.EMPLOYEES
</text>
<line x1="0" y1="17" x2="245" y2="17" fill="none" stroke="rgb(0,0,255)"/>
<text x="16" y="30" fill="rgb(255,0,0)" fill-opacity="1.0" font-size="10" stroke="none">
*
</text>
<text x="2" y="30" fill="rgb(0,0,255)" fill-opacity="1.0" font-size="10" stroke="none">
P
</text>
<text x="26" y="30" fill="rgb(0,0,0)" fill-opacity="1.0" font-size="10" stroke="none">
EMPLOYEE_ID
</text>
<text x="134" y="30" fill="rgb(0,128,0)" fill-opacity="1.0" font-size="10" stroke="none">
NUMBER (6)
</text>
<text x="16" y="43" fill="rgb(255,0,0)" fill-opacity="1.0" font-size="10" stroke="none">

</text>
<text x="26" y="43" fill="rgb(0,0,0)" fill-opacity="1.0" font-size="10" stroke="none">
FIRST_NAME
</text>
<text x="134" y="43" fill="rgb(0,128,0)" fill-opacity="1.0" font-size="10" stroke="none">
VARCHAR2 (20 BYTE)
</text>
<text x="16" y="56" fill="rgb(255,0,0)" fill-opacity="1.0" font-size="10" stroke="none">
*
</text>
<text x="26" y="56" fill="rgb(0,0,0)" fill-opacity="1.0" font-size="10" stroke="none">
LAST_NAME
</text>
<text x="134" y="56" fill="rgb(0,128,0)" fill-opacity="1.0" font-size="10" stroke="none">
VARCHAR2 (25 BYTE)
</text>
<text x="16" y="69" fill="rgb(255,0,0)" fill-opacity="1.0" font-size="10" stroke="none">
*
</text>
<text x="2" y="69" fill="rgb(0,0,255)" fill-opacity="1.0" font-size="10" stroke="none">
U
</text>
<text x="26" y="69" fill="rgb(0,0,0)" fill-opacity="1.0" font-size="10" stroke="none">
EMAIL
</text>
<text x="134" y="69" fill="rgb(0,128,0)" fill-opacity="1.0" font-size="10" stroke="none">
VARCHAR2 (25 BYTE)
</text>
<text x="16" y="82" fill="rgb(255,0,0)" fill-opacity="1.0" font-size="10" stroke="none">

</text>
<text x="26" y="82" fill="rgb(0,0,0)" fill-opacity="1.0" font-size="10" stroke="none">
PHONE_NUMBER
</text>
<text x="134" y="82" fill="rgb(0,128,0)" fill-opacity="1.0" font-size="10" stroke="none">
VARCHAR2 (20 BYTE)
</text>
<text x="16" y="95" fill="rgb(255,0,0)" fill-opacity="1.0" font-size="10" stroke="none">
*
</text>
<text x="26" y="95" fill="rgb(0,0,0)" fill-opacity="1.0" font-size="10" stroke="none">
HIRE_DATE
</text>
<text x="134" y="95" fill="rgb(0,128,0)" fill-opacity="1.0" font-size="10" stroke="none">
DATE
</text>
<text x="16" y="108" fill="rgb(255,0,0)" fill-opacity="1.0" font-size="10" stroke="none">
*
</text>
<text x="2" y="108" fill="rgb(0,0,0)" fill-opacity="1.0" font-size="10" stroke="none">
F
</text>
<text x="26" y="108" fill="rgb(0,0,0)" fill-opacity="1.0" font-size="10" stroke="none">
JOB_ID
</text>
<text x="134" y="108" fill="rgb(0,128,0)" fill-opacity="1.0" font-size="10" stroke="none">
VARCHAR2 (10 BYTE)
</text>
<text x="16" y="121" fill="rgb(255,0,0)" fill-opacity="1.0" font-size="10" stroke="none">

</text>
<text x="26" y="121" fill="rgb(0,0,0)" fill-opacity="1.0" font-size="10" stroke="none">
SALARY
</text>
<text x="134" y="121" fill="rgb(0,128,0)" fill-opacity="1.0" font-size="10" stroke="none">
NUMBER (8,2)
</text>
<text x="16" y="134" fill="rgb(255,0,0)" fill-opacity="1.0" font-size="10" stroke="none">

</text>
<text x="26" y="134" fill="rgb(0,0,0)" fill-opacity="1.0" font-size="10" stroke="none">
COMMISSION_PCT
</text>
<text x="134" y="134" fill="rgb(0,128,0)" fill-opacity="1.0" font-size="10" stroke="none">
NUMBER (2,2)
</text>
<text x="16" y="147" fill="rgb(255,0,0)" fill-opacity="1.0" font-size="10" stroke="none">

</text>
<text x="2" y="147" fill="rgb(0,0,0)" fill-opacity="1.0" font-size="10" stroke="none">
F
</text>
<text x="26" y="147" fill="rgb(0,0,0)" fill-opacity="1.0" font-size="10" stroke="none">
MANAGER_ID
</text>
<text x="134" y="147" fill="rgb(0,128,0)" fill-opacity="1.0" font-size="10" stroke="none">
NUMBER (6)
</text>
<text x="16" y="160" fill="rgb(255,0,0)" fill-opacity="1.0" font-size="10" stroke="none">

</text>
<text x="2" y="160" fill="rgb(0,0,0)" fill-opacity="1.0" font-size="10" stroke="none">
F
</text>
<text x="26" y="160" fill="rgb(0,0,0)" fill-opacity="1.0" font-size="10" stroke="none">
DEPARTMENT_ID
</text>
<text x="134" y="160" fill="rgb(0,128,0)" fill-opacity="1.0" font-size="10" stroke="none">
NUMBER (4)
</text>
<line x1="0" y1="166" x2="245" y2="166" fill="none" stroke="rgb(0,0,255)"/>
<use xlink:href="#uk_sym" x="4" y="173" width="8" height="8" fill-opacity="1.0"/>
<text x="16" y="179" fill="rgb(0,0,0)" fill-opacity="1.0" font-size="10" stroke="none">
EMP_EMAIL_UK (EMAIL)
</text>
<use xlink:href="#pk_sym" x="4" y="186" width="8" height="8" fill-opacity="1.0"/>
<text x="16" y="192" fill="rgb(0,0,0)" fill-opacity="1.0" font-size="10" stroke="none">
EMP_EMP_ID_PK (EMPLOYEE_ID)
</text>
<line x1="0" y1="198" x2="245" y2="198" fill="none" stroke="rgb(0,0,255)"/>
<use xlink:href="#fk_sym" x="4" y="205" width="8" height="8" fill-opacity="1.0"/><a xlink:href="#08E16F3E-6119A01FC2D9" >
<text x="16" y="211" fill="rgb(0,0,0)" fill-opacity="1.0" font-size="10" stroke="none">
EMP_DEPT_FK (DEPARTMENT_ID)
</text></a>
<use xlink:href="#fk_sym" x="4" y="218" width="8" height="8" fill-opacity="1.0"/><a xlink:href="#B156D19C-A8D8CC2E7FBC" >
<text x="16" y="224" fill="rgb(0,0,0)" fill-opacity="1.0" font-size="10" stroke="none">
EMP_JOB_FK (JOB_ID)
</text></a>
<use xlink:href="#fk_sym" x="4" y="231" width="8" height="8" fill-opacity="1.0"/><a xlink:href="#71DE8AC9-578EAB69F3A3" >
<text x="16" y="237" fill="rgb(0,0,0)" fill-opacity="1.0" font-size="10" stroke="none">
EMP_MANAGER_FK (MANAGER_ID)
</text></a>
<line x1="0" y1="243" x2="245" y2="243" fill="none" stroke="rgb(0,0,255)"/>
<text x="16" y="256" fill="rgb(0,0,0)" fill-opacity="1.0" font-size="10" stroke="none">
EMP_DEPARTMENT_IX (DEPARTMENT_ID)
</text>
<text x="2" y="269" fill="rgb(0,0,0)" fill-opacity="1.0" font-size="10" stroke="none">
U
</text>
<text x="16" y="269" fill="rgb(0,0,0)" fill-opacity="1.0" font-size="10" stroke="none">
EMP_EMAIL_UK (EMAIL)
</text>
<text x="2" y="282" fill="rgb(0,0,0)" fill-opacity="1.0" font-size="10" stroke="none">
U
</text>
<text x="16" y="282" fill="rgb(0,0,0)" fill-opacity="1.0" font-size="10" stroke="none">
EMP_EMP_ID_PK (EMPLOYEE_ID)
</text>
<text x="16" y="295" fill="rgb(0,0,0)" fill-opacity="1.0" font-size="10" stroke="none">
EMP_JOB_IX (JOB_ID)
</text>
<text x="16" y="308" fill="rgb(0,0,0)" fill-opacity="1.0" font-size="10" stroke="none">
EMP_MANAGER_IX (MANAGER_ID)
</text>
<text x="16" y="321" fill="rgb(0,0,0)" fill-opacity="1.0" font-size="10" stroke="none">
EMP_NAME_IX (LAST_NAME, FIRST_NAME)
</text>
</g>
<g  fill="rgb(255,255,180)" stroke="rgb(0,0,255)" fill-opacity="1.0" stroke-opacity="1.0" clip-path="url(#clipPath7_0_)" transform="translate(21,512)" >
<rect x="0" y="0" width="248" height="198" />
<text id="02CA4671-1FB256F4DC80" x="86" y="13" fill="rgb(0,0,255)" font-weight="bold"  fill-opacity="1.0" font-size="10" stroke="none">
HR.LOCATIONS
</text>
<line x1="0" y1="17" x2="247" y2="17" fill="none" stroke="rgb(0,0,255)"/>
<text x="16" y="30" fill="rgb(255,0,0)" fill-opacity="1.0" font-size="10" stroke="none">
*
</text>
<text x="2" y="30" fill="rgb(0,0,255)" fill-opacity="1.0" font-size="10" stroke="none">
P
</text>
<text x="26" y="30" fill="rgb(0,0,0)" fill-opacity="1.0" font-size="10" stroke="none">
LOCATION_ID
</text>
<text x="126" y="30" fill="rgb(0,128,0)" fill-opacity="1.0" font-size="10" stroke="none">
NUMBER (4)
</text>
<text x="16" y="43" fill="rgb(255,0,0)" fill-opacity="1.0" font-size="10" stroke="none">

</text>
<text x="26" y="43" fill="rgb(0,0,0)" fill-opacity="1.0" font-size="10" stroke="none">
STREET_ADDRESS
</text>
<text x="126" y="43" fill="rgb(0,128,0)" fill-opacity="1.0" font-size="10" stroke="none">
VARCHAR2 (40 BYTE)
</text>
<text x="16" y="56" fill="rgb(255,0,0)" fill-opacity="1.0" font-size="10" stroke="none">

</text>
<text x="26" y="56" fill="rgb(0,0,0)" fill-opacity="1.0" font-size="10" stroke="none">
POSTAL_CODE
</text>
<text x="126" y="56" fill="rgb(0,128,0)" fill-opacity="1.0" font-size="10" stroke="none">
VARCHAR2 (12 BYTE)
</text>
<text x="16" y="69" fill="rgb(255,0,0)" fill-opacity="1.0" font-size="10" stroke="none">
*
</text>
<text x="26" y="69" fill="rgb(0,0,0)" fill-opacity="1.0" font-size="10" stroke="none">
CITY
</text>
<text x="126" y="69" fill="rgb(0,128,0)" fill-opacity="1.0" font-size="10" stroke="none">
VARCHAR2 (30 BYTE)
</text>
<text x="16" y="82" fill="rgb(255,0,0)" fill-opacity="1.0" font-size="10" stroke="none">

</text>
<text x="26" y="82" fill="rgb(0,0,0)" fill-opacity="1.0" font-size="10" stroke="none">
STATE_PROVINCE
</text>
<text x="126" y="82" fill="rgb(0,128,0)" fill-opacity="1.0" font-size="10" stroke="none">
VARCHAR2 (25 BYTE)
</text>
<text x="16" y="95" fill="rgb(255,0,0)" fill-opacity="1.0" font-size="10" stroke="none">

</text>
<text x="2" y="95" fill="rgb(0,0,0)" fill-opacity="1.0" font-size="10" stroke="none">
F
</text>
<text x="26" y="95" fill="rgb(0,0,0)" fill-opacity="1.0" font-size="10" stroke="none">
COUNTRY_ID
</text>
<text x="126" y="95" fill="rgb(0,128,0)" fill-opacity="1.0" font-size="10" stroke="none">
CHAR (2 BYTE)
</text>
<line x1="0" y1="101" x2="247" y2="101" fill="none" stroke="rgb(0,0,255)"/>
<use xlink:href="#pk_sym" x="4" y="108" width="8" height="8" fill-opacity="1.0"/>
<text x="16" y="114" fill="rgb(0,0,0)" fill-opacity="1.0" font-size="10" stroke="none">
LOC_ID_PK (LOCATION_ID)
</text>
<line x1="0" y1="120" x2="247" y2="120" fill="none" stroke="rgb(0,0,255)"/>
<use xlink:href="#fk_sym" x="4" y="127" width="8" height="8" fill-opacity="1.0"/><a xlink:href="#252C5112-9546F4FE35A0" >
<text x="16" y="133" fill="rgb(0,0,0)" fill-opacity="1.0" font-size="10" stroke="none">
LOC_C_ID_FK (COUNTRY_ID)
</text></a>
<line x1="0" y1="139" x2="247" y2="139" fill="none" stroke="rgb(0,0,255)"/>
<text x="16" y="152" fill="rgb(0,0,0)" fill-opacity="1.0" font-size="10" stroke="none">
LOC_CITY_IX (CITY)
</text>
<text x="16" y="165" fill="rgb(0,0,0)" fill-opacity="1.0" font-size="10" stroke="none">
LOC_COUNTRY_IX (COUNTRY_ID)
</text>
<text x="2" y="178" fill="rgb(0,0,0)" fill-opacity="1.0" font-size="10" stroke="none">
U
</text>
<text x="16" y="178" fill="rgb(0,0,0)" fill-opacity="1.0" font-size="10" stroke="none">
LOC_ID_PK (LOCATION_ID)
</text>
<text x="16" y="191" fill="rgb(0,0,0)" fill-opacity="1.0" font-size="10" stroke="none">
LOC_STATE_PROVINCE_IX (STATE_PROVINCE)
</text>
</g>

</svg>